<?xml version="1.0" encoding="utf-8"?>
<!-- Generator: Adobe Illustrator 18.0.0, SVG Export Plug-In . SVG Version: 6.00 Build 0)  -->
<!DOCTYPE svg PUBLIC "-//W3C//DTD SVG 1.1//EN" "http://www.w3.org/Graphics/SVG/1.1/DTD/svg11.dtd">
<svg version="1.1" id="Layer_1" xmlns="http://www.w3.org/2000/svg" xmlns:xlink="http://www.w3.org/1999/xlink" x="0px" y="0px"
	 viewBox="0 0 222.5 40" enable-background="new 0 0 222.5 40" xml:space="preserve">
<path fill="#FFFFFF" d="M35.3,21h-4c-0.3-1.9-1.3-2.7-2.6-2.7c-1.7,0-2.8,1.4-2.8,4.4c0,3.3,1.1,4.7,2.8,4.7c1.3,0,2.3-0.9,2.6-2.5
	h4.1c-0.6,3.5-3.2,5.3-6.9,5.3c-3.9,0-6.8-2.5-6.8-7.3c0-4.8,3.2-7.5,7.2-7.5C32.7,15.5,35.1,17.9,35.3,21"/>
<path fill="#FFFFFF" d="M42.5,24.2c0,0.5,0,1,0,1.4c0.1,1.4,0.6,1.8,2.8,1.6v2.7c-0.9,0.1-1.7,0.2-2.6,0.2c-3.2,0-4.2-1-4.4-3.2
	c-0.1-0.7-0.1-1.4-0.1-2.2v-6.7H36v-2.7h2.2v-3.6h4.3v3.6h3.1v2.7h-3.1V24.2z"/>
<path fill="#FFFFFF" d="M51.6,11.9c0,1.4-0.9,2.2-2.3,2.2c-1.4,0-2.3-0.9-2.3-2.2c0-1.3,0.9-2.2,2.3-2.2
	C50.7,9.7,51.6,10.6,51.6,11.9 M47.2,15.4h4.3v14.8h-4.3V15.4z"/>
<polygon fill="#FFFFFF" points="62.9,29.8 58.2,29.8 52.6,15.5 57.3,15.5 60.6,26.6 63.9,15.5 68.5,15.5 "/>
<path fill="#FFFFFF" d="M81.9,23.9H72c0.2,2.7,1.4,3.5,2.9,3.5c1.4,0,2.4-0.8,2.7-2.1h4.1c-0.8,3.2-3.4,4.9-6.8,4.9
	c-3.9,0-7-2.4-7-7.3c0-4.2,2.8-7.4,7.3-7.4c4.5,0,6.8,3.4,6.8,7.1C81.9,22.9,81.9,23.4,81.9,23.9 M72.1,21.3h5.5c-0.2-2-1.2-3-2.7-3
	C73.5,18.3,72.5,19.2,72.1,21.3"/>
<rect x="88.7" y="11.2" fill="#FFFFFF" width="4.2" height="18.6"/>
<path fill="#FFFFFF" d="M109.2,21.9v7.9h-4.1v-7.2c0-0.5,0-1.2-0.1-1.9c-0.1-1.4-0.9-2.3-2.5-2.3c-1.6,0-2.8,1.5-2.8,5v6.5h-4.1
	V15.9h4.1v2.2c0,0,0.8-1.3,1.2-1.7c0.8-0.8,1.9-0.9,3.2-0.9c2.9,0,4.6,1.4,4.9,3.8C109.2,20.1,109.2,20.8,109.2,21.9"/>
<path fill="#FFFFFF" d="M126.2,26.3c0,0.9,0,2,0,2.7c-0.2,4.5-3.2,6.6-7.8,6.6c-4.2,0-6.6-1.7-6.9-4.9l0-0.3h4l0,0.2
	c0.1,1.1,1.3,1.8,3,1.8c2,0,3.4-1,3.5-3.1c0-0.5,0.1-1.1,0.1-1.8v-0.4L121,29c-0.8,0.6-2,0.9-3.4,0.9c-3.9,0-6.5-2.7-6.5-6.9
	c0-5.1,3.1-7.5,6.7-7.5c1.2,0,2.6,0.2,3.2,0.8c0.3,0.3,1,1.5,1,1.5v-1.9h4.2V26.3z M122,22.6v-0.3c0-3-1.7-4.1-3.2-4.1
	c-2,0-3.4,1.3-3.4,4.4c0,2.8,1.3,4.4,3.3,4.4C120.6,27,122,25.9,122,22.6"/>
<path fill="#FFFFFF" d="M137.7,15.6v3.3c-3.3-0.2-4.6,1.1-4.6,5.1v5.8h-4.1v-14h4.1v2.7c0,0,0.7-1.5,1-1.9c0.6-0.8,1.7-1.1,2.5-1.1
	C137.1,15.5,137.4,15.5,137.7,15.6"/>
<path fill="#FFFFFF" d="M151.8,23.7h-9.6c0.2,2.6,1.4,3.4,2.9,3.4c1.4,0,2.4-0.8,2.6-2.1h4c-0.7,3.2-3.3,4.8-6.7,4.8
	c-3.8,0-6.8-2.3-6.8-7.2c0-4.1,2.7-7.2,7.1-7.2c4.4,0,6.6,3.3,6.6,7C151.8,22.8,151.8,23.2,151.8,23.7 M142.3,21.2h5.4
	c-0.2-1.9-1.1-2.9-2.6-2.9C143.6,18.2,142.6,19.1,142.3,21.2"/>
<path fill="#FFFFFF" d="M168.1,29.8h-4.1v-2.1c0,0-0.7,1.2-1.1,1.5c-0.7,0.7-2.2,0.9-3.6,0.9c-3.9,0-6.2-2.9-6.2-7.1
	c0-5,3.1-7.6,6.7-7.6c1.2,0,2.7,0.1,3.3,0.7c0.3,0.3,0.9,1.5,0.9,1.5v-7.1h4.1V29.8z M163.9,23v-0.7c0-3-1.7-4-3.2-4
	c-2,0-3.4,1.5-3.4,4.6c0,2.8,1.3,4.5,3.3,4.5C162.5,27.4,163.9,26.2,163.9,23"/>
<path fill="#FFFFFF" d="M175.2,12.1c0,1.3-0.9,2.2-2.3,2.2c-1.3,0-2.2-0.8-2.2-2.2c0-1.3,0.9-2.1,2.2-2.1
	C174.3,9.9,175.2,10.8,175.2,12.1 M170.8,15.5h4.2v14.3h-4.2V15.5z"/>
<path fill="#FFFFFF" d="M190.2,23.7h-9.5c0.2,2.6,1.4,3.4,2.9,3.4c1.4,0,2.3-0.8,2.6-2h4c-0.7,3.1-3.3,4.8-6.6,4.8
	c-3.8,0-6.8-2.3-6.8-7.1c0-4.1,2.7-7.2,7-7.2c4.3,0,6.6,3.3,6.6,6.9C190.2,22.8,190.2,23.2,190.2,23.7 M180.7,21.2h5.4
	c-0.2-1.9-1.1-2.9-2.6-2.9C182.1,18.3,181.1,19.2,180.7,21.2"/>
<path fill="#FFFFFF" d="M205.7,21.7v8.1h-4.2v-7.5c0-0.5,0-1.3-0.1-2c-0.1-1.5-0.9-2.4-2.6-2.4c-1.7,0-2.9,1.5-2.9,5.2v6.6h-4.2
	V15.5h4.2v2.3c0,0,0.8-1.4,1.2-1.7c0.8-0.8,2-0.9,3.3-0.9c3,0,4.8,1.5,5.1,4C205.6,19.8,205.7,20.6,205.7,21.7"/>
<path fill="#FFFFFF" d="M212.7,24.1c0,0.5,0,1,0,1.3c0.1,1.4,0.6,1.7,2.7,1.6v2.7c-0.9,0.1-1.7,0.2-2.6,0.2c-3.1,0-4.1-1-4.3-3.1
	c-0.1-0.7-0.1-1.4-0.1-2.2v-6.5h-2.2v-2.7h2.2V12h4.2v3.6h3v2.7h-3V24.1z"/>
<path fill="#FFFFFF" d="M12.8,14.4l-1.1-0.4L10.9,14l-1.4-0.8L4.8,24.7l2.7,1.2l0.6,3.1h1.1h6.1h1l0.8-3l2.7-1.3l-4.7-11.6l-0.4-0.9
	L12.8,14.4z M8.8,25.1l3.5-8.9l3.5,8.8L8.8,25.1z"/>
<g>
	<g>
		<path fill="#FFFFFF" d="M12.3,15.5c-1.6,0-3-1.3-3-3s1.3-3,3-3c1.6,0,3,1.3,3,3S13.9,15.5,12.3,15.5z M12.3,11
			c-0.8,0-1.5,0.7-1.5,1.5c0,0.8,0.7,1.5,1.5,1.5c0.8,0,1.5-0.7,1.5-1.5C13.8,11.7,13.1,11,12.3,11z"/>
	</g>
</g>
<g>
	<g>
		<path fill="#FFFFFF" d="M6.1,30.1c-1.6,0-3-1.3-3-3c0-1.6,1.3-3,3-3c1.6,0,3,1.3,3,3C9.1,28.7,7.7,30.1,6.1,30.1z M6.1,25.6
			c-0.8,0-1.5,0.7-1.5,1.5c0,0.8,0.7,1.5,1.5,1.5c0.8,0,1.5-0.7,1.5-1.5C7.6,26.3,6.9,25.6,6.1,25.6z"/>
	</g>
</g>
<g>
	<g>
		<path fill="#FFFFFF" d="M15.5,27.1c0-1.6,1.3-3,3-3c1.6,0,3,1.3,3,3c0,1.6-1.3,3-3,3C16.8,30.1,15.5,28.7,15.5,27.1z M16.9,27.1
			c0,0.8,0.7,1.5,1.5,1.5c0.8,0,1.5-0.7,1.5-1.5c0-0.8-0.7-1.5-1.5-1.5C17.6,25.6,16.9,26.2,16.9,27.1z"/>
	</g>
</g>
</svg>
